<svg aria-hidden="true" style="position: absolute; width: 0; height: 0; overflow: hidden;" version="1.1" xmlns="http://www.w3.org/2000/svg" xmlns:xlink="http://www.w3.org/1999/xlink">
<defs>
<symbol id="icon-money-guard-merged-logo-mobile" viewBox="0 0 76 32">
<path fill="#fbfbfb" style="fill: var(--color1, #fbfbfb)" d="M8.948 19.752v7.898h-1.039v-5.889l-2.625 5.889h-0.73l-2.637-5.901v5.901h-1.039v-7.898h1.119l2.922 6.529 2.922-6.529h1.107zM13.438 27.753c-0.586 0-1.119-0.133-1.598-0.399-0.472-0.266-0.845-0.643-1.119-1.13-0.266-0.495-0.399-1.065-0.399-1.712 0-0.639 0.137-1.202 0.411-1.689 0.281-0.495 0.662-0.871 1.141-1.13 0.479-0.266 1.016-0.399 1.609-0.399s1.13 0.133 1.609 0.399c0.479 0.259 0.856 0.632 1.13 1.119 0.282 0.487 0.422 1.054 0.422 1.701s-0.145 1.218-0.434 1.712c-0.281 0.487-0.666 0.864-1.153 1.13s-1.027 0.399-1.621 0.399zM13.438 26.84c0.373 0 0.723-0.087 1.050-0.262s0.59-0.438 0.788-0.788c0.205-0.35 0.308-0.776 0.308-1.278s-0.099-0.928-0.297-1.278c-0.198-0.35-0.457-0.609-0.776-0.776-0.32-0.175-0.666-0.263-1.039-0.263-0.38 0-0.73 0.088-1.050 0.263-0.312 0.167-0.563 0.426-0.753 0.776s-0.285 0.776-0.285 1.278c0 0.51 0.091 0.94 0.274 1.29 0.19 0.35 0.441 0.613 0.753 0.788 0.312 0.167 0.654 0.251 1.027 0.251zM21.058 21.281c0.761 0 1.377 0.232 1.849 0.696 0.472 0.457 0.708 1.119 0.708 1.986v3.687h-1.027v-3.538c0-0.624-0.156-1.099-0.468-1.427-0.312-0.335-0.738-0.502-1.278-0.502-0.548 0-0.985 0.171-1.313 0.514-0.32 0.342-0.479 0.841-0.479 1.495v3.458h-1.039v-6.255h1.039v0.89c0.205-0.32 0.483-0.567 0.833-0.742 0.358-0.175 0.749-0.263 1.176-0.263zM31.018 24.283c0 0.198-0.011 0.407-0.034 0.628h-4.999c0.038 0.616 0.247 1.1 0.628 1.45 0.388 0.343 0.856 0.514 1.404 0.514 0.449 0 0.822-0.103 1.119-0.308 0.304-0.213 0.517-0.495 0.639-0.845h1.119c-0.167 0.601-0.502 1.092-1.004 1.472-0.502 0.373-1.126 0.559-1.872 0.559-0.593 0-1.126-0.133-1.598-0.399-0.464-0.266-0.829-0.643-1.096-1.13-0.266-0.495-0.399-1.065-0.399-1.712s0.129-1.214 0.388-1.701c0.259-0.487 0.62-0.86 1.084-1.119 0.472-0.266 1.012-0.399 1.621-0.399 0.593 0 1.119 0.129 1.575 0.388s0.807 0.616 1.050 1.073c0.251 0.449 0.377 0.959 0.377 1.529zM29.945 24.066c0-0.396-0.088-0.734-0.263-1.016-0.175-0.289-0.415-0.506-0.719-0.651-0.297-0.152-0.628-0.228-0.993-0.228-0.525 0-0.974 0.167-1.347 0.502-0.365 0.335-0.575 0.799-0.628 1.393h3.949zM37.776 21.395l-3.767 9.199h-1.073l1.233-3.013-2.522-6.186h1.153l1.963 5.068 1.94-5.068h1.073zM47.889 22c-0.221-0.464-0.54-0.822-0.959-1.073-0.419-0.259-0.905-0.388-1.461-0.388s-1.058 0.129-1.507 0.388c-0.441 0.251-0.791 0.616-1.050 1.096-0.251 0.472-0.377 1.020-0.377 1.644s0.126 1.172 0.377 1.644c0.259 0.472 0.609 0.837 1.050 1.096 0.449 0.251 0.951 0.377 1.507 0.377 0.776 0 1.415-0.232 1.917-0.696s0.795-1.092 0.879-1.883h-3.173v-0.845h4.28v0.799c-0.061 0.654-0.266 1.255-0.616 1.803-0.35 0.54-0.81 0.97-1.381 1.29-0.571 0.312-1.206 0.468-1.906 0.468-0.738 0-1.411-0.171-2.020-0.514-0.609-0.35-1.092-0.833-1.45-1.45-0.35-0.616-0.525-1.313-0.525-2.089s0.175-1.472 0.525-2.089c0.358-0.624 0.841-1.107 1.45-1.45 0.609-0.35 1.282-0.525 2.020-0.525 0.845 0 1.59 0.209 2.237 0.628 0.654 0.419 1.13 1.008 1.427 1.769h-1.244zM56.293 21.395v6.255h-1.039v-0.925c-0.198 0.32-0.476 0.571-0.833 0.753-0.35 0.175-0.738 0.262-1.164 0.262-0.487 0-0.924-0.099-1.313-0.297-0.388-0.205-0.696-0.51-0.924-0.913-0.221-0.403-0.331-0.894-0.331-1.472v-3.664h1.027v3.527c0 0.616 0.156 1.092 0.468 1.427 0.312 0.327 0.738 0.491 1.278 0.491 0.555 0 0.993-0.171 1.313-0.514s0.479-0.841 0.479-1.495v-3.436h1.039zM57.659 24.5c0-0.639 0.129-1.198 0.388-1.678 0.259-0.487 0.613-0.864 1.062-1.13 0.457-0.266 0.963-0.399 1.518-0.399 0.548 0 1.023 0.118 1.427 0.354s0.704 0.533 0.902 0.89v-1.141h1.050v6.255h-1.050v-1.164c-0.206 0.365-0.514 0.67-0.925 0.913-0.403 0.236-0.875 0.354-1.415 0.354-0.555 0-1.058-0.137-1.507-0.411s-0.803-0.658-1.062-1.153c-0.259-0.495-0.388-1.058-0.388-1.689zM62.955 24.511c0-0.472-0.095-0.883-0.285-1.233s-0.449-0.616-0.776-0.799c-0.32-0.19-0.673-0.285-1.061-0.285s-0.742 0.091-1.062 0.274c-0.32 0.183-0.575 0.449-0.765 0.799s-0.285 0.761-0.285 1.233c0 0.479 0.095 0.898 0.285 1.255 0.19 0.35 0.445 0.62 0.765 0.81 0.32 0.183 0.673 0.274 1.062 0.274s0.742-0.091 1.061-0.274c0.327-0.19 0.586-0.46 0.776-0.81 0.19-0.358 0.285-0.772 0.285-1.244zM66.799 22.411c0.183-0.358 0.441-0.635 0.776-0.833 0.342-0.198 0.757-0.297 1.244-0.297v1.073h-0.274c-1.164 0-1.746 0.632-1.746 1.895v3.401h-1.039v-6.255h1.039v1.016zM69.63 24.5c0-0.639 0.129-1.198 0.388-1.678 0.259-0.487 0.613-0.864 1.061-1.13 0.457-0.266 0.966-0.399 1.529-0.399 0.487 0 0.94 0.114 1.358 0.342 0.418 0.221 0.738 0.514 0.959 0.879v-3.31h1.050v8.446h-1.050v-1.176c-0.205 0.373-0.51 0.681-0.913 0.924-0.403 0.236-0.875 0.354-1.415 0.354-0.555 0-1.061-0.137-1.518-0.411-0.449-0.274-0.803-0.658-1.061-1.153s-0.388-1.058-0.388-1.689zM74.926 24.511c0-0.472-0.095-0.883-0.285-1.233s-0.449-0.616-0.776-0.799c-0.32-0.19-0.673-0.285-1.061-0.285s-0.742 0.091-1.061 0.274c-0.32 0.183-0.575 0.449-0.765 0.799s-0.285 0.761-0.285 1.233c0 0.479 0.095 0.898 0.285 1.255 0.19 0.35 0.445 0.62 0.765 0.81 0.32 0.183 0.673 0.274 1.061 0.274s0.742-0.091 1.061-0.274c0.327-0.19 0.586-0.46 0.776-0.81 0.19-0.358 0.285-0.772 0.285-1.244z"></path>
<path fill="#ffc727" style="fill: var(--color2, #ffc727)" d="M41.347 2.091c-1.077-0.269-2.153-0.808-2.961-1.615-0.808 0.808-1.884 1.346-2.961 1.615 0.269 2.423 1.077 4.038 2.961 5.384 1.884-1.346 2.961-2.961 2.961-5.384z"></path>
<path fill="#fbfbfb" style="fill: var(--color1, #fbfbfb)" d="M40.271 12.113l-7.537-8.883v4.307l5.922 6.73 1.615-2.154z"></path>
<path fill="#fbfbfb" style="fill: var(--color1, #fbfbfb)" d="M41.078 11.306l3.23-3.769v-4.038l-5.115 5.922 1.884 1.884z"></path>
<path fill="#fbfbfb" style="fill: var(--color1, #fbfbfb)" d="M41.347 12.652v2.423l2.961-3.499v-2.423l-2.961 3.499z"></path>
<path fill="#fbfbfb" style="fill: var(--color1, #fbfbfb)" d="M35.694 12.652l-2.961-3.499v2.423l2.961 3.499v-2.423z"></path>
</symbol>
<symbol id="icon-exit" viewBox="0 0 32 32">
<path fill="#fff" style="fill: var(--color3, #fff)" opacity="0.6" d="M20.051 23.237h2.499v4.997c0 2.067-1.681 3.748-3.748 3.748h-15.054c-2.066 0-3.748-1.681-3.748-3.748v-24.486c0-2.066 1.681-3.748 3.748-3.748h15.054c2.067 0 3.748 1.681 3.748 3.748v4.997h-2.499v-4.997c0-0.689-0.56-1.249-1.249-1.249h-15.054c-0.689 0-1.249 0.561-1.249 1.249v24.486c0 0.689 0.561 1.249 1.249 1.249h15.054c0.689 0 1.249-0.561 1.249-1.249v-4.997zM26.111 10.102l-1.767 1.767 2.873 2.874h-16.161v2.499h16.161l-2.873 2.873 1.767 1.767 5.889-5.889-5.889-5.89z"></path>
</symbol>
<symbol id="icon-money-guard-merged-logo" viewBox="0 0 77 32">
<path fill="#fbfbfb" style="fill: var(--color1, #fbfbfb)" d="M8.936 19.758v7.887h-1.037v-5.881l-2.622 5.881h-0.729l-2.633-5.893v5.893h-1.037v-7.887h1.117l2.918 6.52 2.918-6.52h1.106zM13.419 27.748c-0.585 0-1.117-0.133-1.596-0.399-0.471-0.266-0.843-0.642-1.117-1.128-0.266-0.494-0.399-1.064-0.399-1.71 0-0.638 0.137-1.201 0.41-1.687 0.281-0.494 0.661-0.87 1.14-1.128 0.479-0.266 1.014-0.399 1.607-0.399s1.128 0.133 1.607 0.399c0.479 0.258 0.855 0.631 1.128 1.117 0.281 0.486 0.422 1.052 0.422 1.698s-0.144 1.216-0.433 1.71c-0.281 0.486-0.665 0.862-1.151 1.128s-1.026 0.399-1.619 0.399zM13.419 26.836c0.372 0 0.722-0.087 1.049-0.262s0.589-0.437 0.786-0.786c0.205-0.35 0.308-0.775 0.308-1.277s-0.099-0.927-0.296-1.277c-0.198-0.35-0.456-0.608-0.775-0.775-0.319-0.175-0.665-0.262-1.037-0.262-0.38 0-0.729 0.087-1.049 0.262-0.312 0.167-0.562 0.426-0.752 0.775s-0.285 0.775-0.285 1.277c0 0.509 0.091 0.938 0.274 1.288 0.19 0.35 0.441 0.612 0.752 0.786 0.312 0.167 0.653 0.251 1.026 0.251zM21.029 21.285c0.76 0 1.375 0.232 1.846 0.695 0.471 0.456 0.707 1.117 0.707 1.983v3.682h-1.026v-3.533c0-0.623-0.156-1.098-0.467-1.425-0.312-0.334-0.737-0.502-1.277-0.502-0.547 0-0.984 0.171-1.311 0.513-0.319 0.342-0.479 0.84-0.479 1.493v3.454h-1.037v-6.246h1.037v0.889c0.205-0.319 0.482-0.566 0.832-0.741 0.357-0.175 0.748-0.262 1.174-0.262zM30.975 24.283c0 0.198-0.011 0.407-0.034 0.627h-4.992c0.038 0.615 0.247 1.098 0.627 1.448 0.388 0.342 0.855 0.513 1.402 0.513 0.448 0 0.821-0.103 1.117-0.308 0.304-0.213 0.517-0.494 0.638-0.843h1.117c-0.167 0.6-0.502 1.090-1.003 1.47-0.501 0.372-1.125 0.559-1.869 0.559-0.593 0-1.125-0.133-1.596-0.399-0.464-0.266-0.828-0.642-1.094-1.128-0.266-0.494-0.399-1.064-0.399-1.71s0.129-1.212 0.388-1.698c0.258-0.486 0.619-0.859 1.083-1.117 0.471-0.266 1.011-0.399 1.618-0.399 0.593 0 1.117 0.129 1.573 0.388s0.805 0.616 1.049 1.071c0.251 0.448 0.376 0.957 0.376 1.527zM29.904 24.066c0-0.395-0.087-0.733-0.262-1.014-0.175-0.289-0.414-0.505-0.718-0.65-0.296-0.152-0.627-0.228-0.992-0.228-0.524 0-0.973 0.167-1.345 0.502-0.365 0.334-0.574 0.798-0.627 1.391h3.944zM37.724 21.399l-3.761 9.187h-1.071l1.231-3.009-2.519-6.178h1.151l1.96 5.061 1.938-5.061h1.071zM47.824 22.003c-0.22-0.463-0.539-0.821-0.957-1.071-0.418-0.258-0.904-0.388-1.459-0.388s-1.056 0.129-1.505 0.388c-0.441 0.251-0.79 0.616-1.049 1.094-0.251 0.471-0.376 1.018-0.376 1.641s0.125 1.17 0.376 1.641c0.258 0.471 0.608 0.836 1.049 1.094 0.448 0.251 0.95 0.376 1.505 0.376 0.775 0 1.413-0.232 1.915-0.695s0.794-1.090 0.878-1.881h-3.169v-0.843h4.274v0.798c-0.061 0.653-0.266 1.254-0.615 1.801-0.35 0.539-0.809 0.969-1.379 1.288-0.57 0.312-1.204 0.467-1.903 0.467-0.737 0-1.41-0.171-2.017-0.513-0.608-0.35-1.090-0.832-1.448-1.448-0.35-0.615-0.524-1.311-0.524-2.086s0.175-1.47 0.524-2.086c0.357-0.623 0.84-1.106 1.448-1.448 0.608-0.35 1.28-0.524 2.017-0.524 0.843 0 1.588 0.209 2.234 0.627 0.653 0.418 1.128 1.007 1.425 1.767h-1.242zM56.216 21.399v6.246h-1.037v-0.923c-0.198 0.319-0.475 0.57-0.832 0.752-0.35 0.175-0.737 0.262-1.163 0.262-0.486 0-0.923-0.099-1.311-0.296-0.388-0.205-0.695-0.509-0.923-0.912-0.22-0.403-0.331-0.893-0.331-1.47v-3.659h1.026v3.522c0 0.615 0.156 1.090 0.467 1.425 0.312 0.327 0.737 0.49 1.277 0.49 0.555 0 0.992-0.171 1.311-0.513s0.479-0.84 0.479-1.493v-3.431h1.037zM57.58 24.5c0-0.638 0.129-1.197 0.388-1.676 0.258-0.486 0.612-0.862 1.060-1.128 0.456-0.266 0.961-0.399 1.516-0.399 0.547 0 1.022 0.118 1.425 0.353s0.703 0.532 0.9 0.889v-1.14h1.049v6.246h-1.049v-1.163c-0.205 0.365-0.513 0.669-0.923 0.912-0.403 0.236-0.874 0.353-1.413 0.353-0.555 0-1.056-0.137-1.505-0.41s-0.802-0.657-1.060-1.151c-0.258-0.494-0.388-1.056-0.388-1.687zM62.869 24.511c0-0.471-0.095-0.881-0.285-1.231s-0.448-0.615-0.775-0.798c-0.319-0.19-0.672-0.285-1.060-0.285s-0.741 0.091-1.060 0.274c-0.319 0.182-0.574 0.448-0.764 0.798s-0.285 0.76-0.285 1.231c0 0.479 0.095 0.897 0.285 1.254 0.19 0.35 0.445 0.619 0.764 0.809 0.319 0.182 0.672 0.274 1.060 0.274s0.741-0.091 1.060-0.274c0.327-0.19 0.585-0.46 0.775-0.809 0.19-0.357 0.285-0.771 0.285-1.242zM66.707 22.414c0.183-0.357 0.441-0.634 0.775-0.832 0.341-0.198 0.756-0.296 1.242-0.296v1.071h-0.273c-1.163 0-1.744 0.631-1.744 1.892v3.397h-1.037v-6.246h1.037v1.014zM69.535 24.5c0-0.638 0.129-1.197 0.387-1.676 0.259-0.486 0.612-0.862 1.060-1.128 0.456-0.266 0.965-0.399 1.527-0.399 0.487 0 0.939 0.114 1.357 0.342 0.418 0.22 0.737 0.513 0.957 0.878v-3.305h1.049v8.434h-1.049v-1.174c-0.205 0.372-0.509 0.68-0.912 0.923-0.403 0.236-0.874 0.353-1.413 0.353-0.555 0-1.060-0.137-1.516-0.41-0.448-0.274-0.801-0.657-1.060-1.151s-0.387-1.056-0.387-1.687zM74.823 24.511c0-0.471-0.095-0.881-0.285-1.231s-0.448-0.615-0.775-0.798c-0.319-0.19-0.673-0.285-1.060-0.285s-0.741 0.091-1.060 0.274c-0.319 0.182-0.574 0.448-0.764 0.798s-0.285 0.76-0.285 1.231c0 0.479 0.095 0.897 0.285 1.254 0.19 0.35 0.445 0.619 0.764 0.809 0.319 0.182 0.672 0.274 1.060 0.274s0.741-0.091 1.060-0.274c0.327-0.19 0.585-0.46 0.775-0.809 0.19-0.357 0.285-0.771 0.285-1.242z"></path>
<path fill="#ffb627" style="fill: var(--color4, #ffb627)" d="M41.379 2.059c-1.109-0.265-2.218-0.796-3.049-1.591-0.832 0.796-1.941 1.326-3.049 1.591 0.277 2.387 1.109 3.978 3.049 5.303 1.941-1.326 3.049-2.917 3.049-5.303z"></path>
<path fill="#fbfbfb" style="fill: var(--color1, #fbfbfb)" d="M40.27 11.933l-7.762-8.751v4.243l6.099 6.629 1.663-2.121z"></path>
<path fill="#fbfbfb" style="fill: var(--color1, #fbfbfb)" d="M41.102 11.137l3.327-3.712v-3.978l-5.267 5.834 1.941 1.856z"></path>
<path fill="#fbfbfb" style="fill: var(--color1, #fbfbfb)" d="M41.379 12.463v2.387l3.049-3.447v-2.387l-3.049 3.447z"></path>
<path fill="#fbfbfb" style="fill: var(--color1, #fbfbfb)" d="M35.557 12.463l-3.049-3.447v2.387l3.049 3.447v-2.387z"></path>
</symbol>
</defs>
</svg>
