<svg width="13" height="13" viewBox="0 0 13 13" fill="none" xmlns="http://www.w3.org/2000/svg">
<path d="M9.64166 5.16668L7.30832 2.83335M0.599976 11.875L2.57419 11.6557C2.81539 11.6289 2.93599 11.6155 3.04872 11.579C3.14873 11.5466 3.2439 11.5008 3.33166 11.443C3.43057 11.3777 3.51638 11.2919 3.68798 11.1203L11.3917 3.41668C12.036 2.77235 12.036 1.72768 11.3917 1.08335C10.7473 0.439015 9.70266 0.439014 9.05832 1.08335L1.35465 8.78701C1.18304 8.95861 1.09724 9.04442 1.03201 9.14333C0.974145 9.23109 0.928401 9.32626 0.896025 9.42627C0.859533 9.539 0.846133 9.6596 0.819333 9.9008L0.599976 11.875Z" stroke="white" stroke-opacity="0.6" stroke-width="1.2" stroke-linecap="round" stroke-linejoin="round"/>
</svg>
